<?xml version="1.0" encoding="iso-8859-1"?>
<!-- Generator: Adobe Illustrator 19.0.0, SVG Export Plug-In . SVG Version: 6.00 Build 0)  -->
<svg version="1.1" id="Capa_1" xmlns="http://www.w3.org/2000/svg" xmlns:xlink="http://www.w3.org/1999/xlink" x="0px" y="0px"
	 viewBox="0 0 512 512" style="enable-background:new 0 0 512 512;" xml:space="preserve">
<path style="fill:#6C9BAA;" d="M259.001,104.064c0,4.5-3.648,8.148-8.148,8.148h-41.398c-4.5,0-8.148-3.648-8.148-8.148V60.591
	h57.694V104.064z"/>
<circle style="fill:#46738C;" cx="230.159" cy="86.4" r="11.134"/>
<g>
	<ellipse style="fill:#C8E6EB;" cx="204.089" cy="9.73" rx="23.28" ry="9.73"/>
	<ellipse style="fill:#C8E6EB;" cx="157.529" cy="9.73" rx="23.28" ry="9.73"/>
	<ellipse style="fill:#C8E6EB;" cx="302.779" cy="9.73" rx="23.28" ry="9.73"/>
	<ellipse style="fill:#C8E6EB;" cx="256.219" cy="9.73" rx="23.28" ry="9.73"/>
</g>
<g>
	<path style="fill:#6C9BAA;" d="M180.811,65.652c-4.193,0-7.591-3.399-7.591-7.591V7.958c0-4.193,3.399-7.591,7.591-7.591
		s7.591,3.399,7.591,7.591V58.06C188.402,62.253,185.004,65.652,180.811,65.652z"/>
	<path style="fill:#6C9BAA;" d="M279.498,65.652c-4.193,0-7.591-3.399-7.591-7.591V7.958c0-4.193,3.399-7.591,7.591-7.591
		s7.591,3.399,7.591,7.591V58.06C287.089,62.253,283.69,65.652,279.498,65.652z"/>
</g>
<g>
	<path style="fill:#3C5A73;" d="M164.607,135.054c-3.951-1.403-6.016-5.743-4.614-9.694l24.798-69.84
		c1.403-3.951,5.742-6.016,9.694-4.614c3.951,1.403,6.016,5.743,4.614,9.694l-24.798,69.84
		C172.905,134.372,168.576,136.464,164.607,135.054z"/>
	<path style="fill:#3C5A73;" d="M286.008,130.441l-24.798-69.84c-1.403-3.951,0.663-8.291,4.614-9.694
		c3.951-1.402,8.291,0.663,9.694,4.614l24.798,69.84c1.403,3.951-0.663,8.291-4.614,9.694
		C291.746,136.46,287.409,134.385,286.008,130.441z"/>
	<path style="fill:#3C5A73;" d="M278.739,68.183h-97.168c-5.59,0-10.122-4.532-10.122-10.122s4.531-10.122,10.122-10.122h97.168
		c5.59,0,10.122,4.531,10.122,10.122S284.329,68.183,278.739,68.183z"/>
</g>
<path style="fill:#46738C;" d="M351.793,229.174l-25.002,13.5c-3.012,1.626-6.773,0.503-8.399-2.509l-18.095-33.512
	c-1.626-3.012-0.503-6.773,2.509-8.399l25.002-13.5c3.012-1.626,6.772-0.503,8.399,2.509l18.095,33.512
	C355.928,223.787,354.805,227.548,351.793,229.174z"/>
<path style="fill:#748488;" d="M466.483,496.941l-28.952-93.48c-0.544-1.759-0.859-3.58-0.936-5.42l-2.962-70.794
	c-0.492-11.772,8.651-21.715,20.424-22.207c11.765-0.493,21.715,8.651,22.207,20.423l2.847,68.023l28.131,90.831
	c3.486,11.255-2.813,23.205-14.068,26.69C481.88,514.506,469.957,508.159,466.483,496.941z"/>
<path style="fill:#55696E;" d="M359.526,511.802c-11.675-1.589-19.851-12.342-18.262-24.017l14.024-103.02
	c0.228-1.674,0.654-3.315,1.269-4.889l31.653-80.979c4.289-10.974,16.663-16.393,27.637-12.103
	c10.974,4.289,16.392,16.663,12.103,27.637l-30.728,78.61l-13.681,100.5C381.959,505.177,371.237,513.396,359.526,511.802z"/>
<path style="fill:#FFDA52;" d="M378.141,324.669h98.079V191.66c0-14.318-11.607-25.924-25.924-25.924h-46.231
	c-14.318,0-25.924,11.607-25.924,25.924V324.669z"/>
<g>
	<circle style="fill:#BA6746;" cx="436.099" cy="115.11" r="38.1"/>
	<path style="fill:#BA6746;" d="M400.144,275.66l-77.327-23.577c-8.951-2.729-13.995-12.198-11.266-21.148
		c2.728-8.951,12.197-13.995,21.148-11.265l63.384,19.326l26.324-55.083c4.035-8.443,14.149-12.017,22.593-7.982
		c8.443,4.035,12.017,14.15,7.982,22.593l-32.609,68.236C416.778,274.281,408.2,278.116,400.144,275.66z"/>
</g>
<path style="fill:#FFC305;" d="M445.001,175.93c-8.444-4.035-18.559-0.461-22.593,7.982l-13.931,29.152l30.272,15.246l14.234-29.786
	C457.017,190.08,453.444,179.965,445.001,175.93z"/>
<path style="fill:#5F6E9B;" d="M25.713,511.997c-11.935,0-21.619-9.666-21.636-21.606V323.785
	c-0.017-11.95,9.418-21.65,21.368-21.668c0.01,0,0.022,0,0.032,0c11.935,0,21.857,9.666,21.874,21.606V490.33
	c0.017,11.95-9.656,21.651-21.606,21.668C25.734,511.997,25.723,511.997,25.713,511.997z"/>
<path style="fill:#414B82;" d="M124.76,388.382c0.392-3.365-0.011-6.774-1.178-9.955l-20.314-55.383V188.857
	c0-14.52-11.771-26.292-26.292-26.292H30.089c-14.521,0-26.292,11.771-26.292,26.292v134.898h53.64l23.744,64.737l-11.58,99.365
	C68.103,500.709,78.145,512,91.119,512c10.829-0.001,20.18-8.117,21.464-19.134L124.76,388.382z"/>
<path style="fill:#64AFFF;" d="M103.268,188.857c0-14.521-11.771-26.292-26.292-26.292H30.089
	c-14.521,0-26.292,11.771-26.292,26.292v134.898h99.732l-0.261-0.711V188.857z"/>
<g>
	<circle style="fill:#FFB69E;" cx="55.499" cy="110.49" r="38.921"/>
	<path style="fill:#FFB69E;" d="M116.191,315.786l-52.34-47.559c-1.655-1.503-3.001-3.314-3.965-5.33l-33.208-69.49
		c-4.109-8.598-0.471-18.899,8.128-23.008c8.6-4.109,18.9-0.469,23.008,8.129l31.749,66.435l49.835,45.283
		c7.053,6.409,7.575,17.321,1.167,24.374C134.148,321.682,123.235,322.187,116.191,315.786z"/>
</g>
<path style="fill:#4699F2;" d="M76.369,217.354l-18.555-38.826c-4.108-8.598-14.409-12.238-23.008-8.129
	c-8.598,4.109-12.237,14.41-8.128,23.008l19.72,41.266L76.369,217.354z"/>
<g>
</g>
<g>
</g>
<g>
</g>
<g>
</g>
<g>
</g>
<g>
</g>
<g>
</g>
<g>
</g>
<g>
</g>
<g>
</g>
<g>
</g>
<g>
</g>
<g>
</g>
<g>
</g>
<g>
</g>
</svg>
